<mxfile host="app.diagrams.net" modified="2022-05-10T12:29:40.052Z" agent="5.0 (Windows NT 10.0; Win64; x64) AppleWebKit/537.36 (KHTML, like Gecko) Chrome/101.0.4951.54 Safari/537.36" etag="vLp81syW1YxU5OElQM0N" version="18.0.2" type="github">
  <diagram id="wwKvsSeiZdQgtGcbpDNy" name="第 1 页">
    <mxGraphModel dx="1422" dy="754" grid="1" gridSize="10" guides="1" tooltips="1" connect="1" arrows="1" fold="1" page="1" pageScale="1" pageWidth="827" pageHeight="1169" math="0" shadow="0">
      <root>
        <mxCell id="0" />
        <mxCell id="1" parent="0" />
        <mxCell id="ZdLB4hxc-VMSMGiIu3Mt-4" style="rounded=0;orthogonalLoop=1;jettySize=auto;html=1;exitX=0;exitY=0.75;exitDx=0;exitDy=0;endArrow=none;endFill=0;" edge="1" parent="1" source="ZdLB4hxc-VMSMGiIu3Mt-1" target="ZdLB4hxc-VMSMGiIu3Mt-2">
          <mxGeometry relative="1" as="geometry" />
        </mxCell>
        <mxCell id="ZdLB4hxc-VMSMGiIu3Mt-5" style="edgeStyle=none;rounded=0;orthogonalLoop=1;jettySize=auto;html=1;exitX=1;exitY=0.75;exitDx=0;exitDy=0;entryX=0.02;entryY=0.25;entryDx=0;entryDy=0;entryPerimeter=0;endArrow=none;endFill=0;" edge="1" parent="1" source="ZdLB4hxc-VMSMGiIu3Mt-1" target="ZdLB4hxc-VMSMGiIu3Mt-3">
          <mxGeometry relative="1" as="geometry" />
        </mxCell>
        <mxCell id="ZdLB4hxc-VMSMGiIu3Mt-1" value="用户" style="rounded=1;whiteSpace=wrap;html=1;" vertex="1" parent="1">
          <mxGeometry x="160" y="90" width="90" height="40" as="geometry" />
        </mxCell>
        <mxCell id="ZdLB4hxc-VMSMGiIu3Mt-2" value="用户名" style="ellipse;whiteSpace=wrap;html=1;" vertex="1" parent="1">
          <mxGeometry x="70" y="110" width="50" height="80" as="geometry" />
        </mxCell>
        <mxCell id="ZdLB4hxc-VMSMGiIu3Mt-3" value="密码" style="ellipse;whiteSpace=wrap;html=1;" vertex="1" parent="1">
          <mxGeometry x="290" y="110" width="50" height="80" as="geometry" />
        </mxCell>
      </root>
    </mxGraphModel>
  </diagram>
</mxfile>
